<svg width="17" height="18" viewBox="0 0 17 18" fill="none" xmlns="http://www.w3.org/2000/svg">
    <path fill-rule="evenodd" clip-rule="evenodd" d="M6.23333 12.985V14.4551C6.23333 14.6088 6.1019 14.7333 5.95 14.7333C5.79352 14.7333 5.66667 14.6042 5.66667 14.4551V12.985C5.33653 12.8683 5.1 12.5534 5.1 12.1833C5.1 11.7139 5.48056 11.3333 5.95 11.3333C6.41944 11.3333 6.8 11.7139 6.8 12.1833C6.8 12.5534 6.56347 12.8683 6.23333 12.985ZM6.8 13.3168V14.4491C6.8 14.919 6.42272 15.3 5.95 15.3C5.48056 15.3 5.1 14.9197 5.1 14.4491V13.3168C4.75591 13.0583 4.53333 12.6468 4.53333 12.1833C4.53333 11.4009 5.1676 10.7667 5.95 10.7667C6.7324 10.7667 7.36667 11.4009 7.36667 12.1833C7.36667 12.6468 7.14409 13.0583 6.8 13.3168ZM8.5 8.5V4.24957C8.5 1.9026 10.4076 0 12.75 0C15.0972 0 17 1.90213 17 4.24957V4.81667V6.51657C17 6.98607 16.6227 7.36667 16.15 7.36667C15.6806 7.36667 15.3 6.98455 15.3 6.51657V4.81667V4.24995C15.3 2.8429 14.1583 1.7 12.75 1.7C11.3445 1.7 10.2 2.84165 10.2 4.24995V8.50001C11.1393 8.50267 11.9 9.2591 11.9 10.2054V15.8613C11.9 16.8031 11.1375 17.5667 10.195 17.5667H1.70498C0.763346 17.5667 0 16.8092 0 15.8613V10.2054C0 9.26352 0.762501 8.5 1.70498 8.5H8.5ZM9.06667 4.25041C9.06667 2.21593 10.7199 0.566667 12.75 0.566667C14.7842 0.566667 16.4333 2.22131 16.4333 4.25041V6.51741C16.4333 6.67348 16.3019 6.8 16.15 6.8C15.9935 6.8 15.8667 6.67689 15.8667 6.51709V4.2475C15.8667 2.52985 14.4713 1.13333 12.75 1.13333C11.0322 1.13333 9.63333 2.52759 9.63333 4.2475V8.5H9.06667V4.25041ZM10.2015 9.06667C10.8266 9.06667 11.3333 9.575 11.3333 10.2033V15.8633C11.3333 16.4911 10.8285 17 10.2015 17H1.69854C1.07342 17 0.566668 16.4917 0.566668 15.8633V10.2033C0.566668 9.57557 1.07152 9.06667 1.69854 9.06667H10.2015Z" fill="#0C71C3" />
</svg>
    