<svg width="17" height="18" viewBox="0 0 17 18" fill="none" xmlns="http://www.w3.org/2000/svg">
    <path d="M8.5 8.915C9.48066 8.915 10.4393 8.65357 11.2547 8.16378C12.0701 7.67398 12.7056 6.97781 13.0809 6.16331C13.4562 5.34881 13.5544 4.45256 13.3631 3.58789C13.1717 2.72322 12.6995 1.92897 12.0061 1.30557C11.3126 0.682181 10.4291 0.257645 9.46732 0.0856516C8.5055 -0.086342 7.50854 0.00193136 6.60253 0.339309C5.69651 0.676686 4.92212 1.24802 4.37729 1.98105C3.83247 2.71408 3.54166 3.57589 3.54166 4.4575C3.54166 5.6397 4.06406 6.77349 4.99393 7.60943C5.92379 8.44537 7.18497 8.915 8.5 8.915ZM8.5 1.27357C9.20047 1.27357 9.88522 1.46031 10.4676 1.81016C11.0501 2.16002 11.504 2.65728 11.7721 3.23906C12.0401 3.82085 12.1103 4.46103 11.9736 5.07865C11.837 5.69628 11.4996 6.2636 11.0043 6.70888C10.509 7.15416 9.87796 7.4574 9.19094 7.58025C8.50393 7.7031 7.79182 7.64005 7.14466 7.39907C6.49751 7.15808 5.94437 6.74999 5.55521 6.2264C5.16605 5.7028 4.95833 5.08722 4.95833 4.4575C4.95833 3.61307 5.33147 2.80323 5.99566 2.20612C6.65985 1.60902 7.56069 1.27357 8.5 1.27357Z" fill="#0C71C3" />
    <path d="M9.20833 10.1886H7.79167C5.72519 10.1886 3.74335 10.9266 2.28213 12.2402C0.820906 13.5538 0 15.3355 0 17.1932C0 17.3621 0.0746279 17.5241 0.207466 17.6435C0.340304 17.7629 0.520472 17.83 0.708333 17.83H16.2917C16.4795 17.83 16.6597 17.7629 16.7925 17.6435C16.9254 17.5241 17 17.3621 17 17.1932C17 15.3355 16.1791 13.5538 14.7179 12.2402C13.2567 10.9266 11.2748 10.1886 9.20833 10.1886ZM1.45917 16.5564C1.63334 15.1559 2.3754 13.8622 3.54356 12.9224C4.71173 11.9827 6.22408 11.4628 7.79167 11.4621H9.20833C10.7759 11.4628 12.2883 11.9827 13.4564 12.9224C14.6246 13.8622 15.3667 15.1559 15.5408 16.5564H1.45917Z" fill="#0C71C3" />
</svg>
    