<svg width="60" height="60" viewBox="0 0 60 60" fill="none" xmlns="http://www.w3.org/2000/svg">
    <path d="M30.2184 59.3322C46.3604 59.3322 59.446 46.2466 59.446 30.1047C59.446 13.9628 46.3604 0.877167 30.2184 0.877167C14.0765 0.877167 0.990906 13.9628 0.990906 30.1047C0.990906 46.2466 14.0765 59.3322 30.2184 59.3322Z" fill="#C1E8F7" />
    <path d="M30.0077 39.4535C30.0351 39.4744 30.0506 39.4995 30.0609 39.5266C30.0712 39.4995 30.0867 39.4744 30.1141 39.4535C33.837 36.6027 35.1387 34.7592 35.6839 34.4534C35.5062 34.0227 35.3869 33.5946 35.3077 33.1858C35.1729 33.3158 35.0355 33.4428 34.8949 33.5664C34.4564 33.9517 33.9873 34.3039 33.4833 34.599C33.0535 34.8507 32.5985 35.0596 32.1241 35.2121C31.6931 35.3507 31.2475 35.4416 30.7971 35.4872C30.2376 35.5439 29.6631 35.5266 29.1074 35.4385C28.6511 35.3661 28.2033 35.2442 27.7733 35.0753C27.2908 34.8858 26.8324 34.6385 26.4014 34.351C25.8951 34.0134 25.4268 33.6212 24.9886 33.1996C24.9035 33.6341 24.772 34.09 24.5741 34.5475C25.1924 35.0417 26.5646 36.8169 30.0077 39.4535Z" fill="#835F55" />
    <path d="M22.2738 37.1518C22.2017 37.4563 21.8064 38.4173 23.5251 40.8548C24.4937 42.2284 26.8296 45.858 28.4541 49.0807C28.7911 46.9021 29.0663 45.1924 29.1762 44.5901C29.0974 44.5435 29.0257 44.4834 28.9911 44.4061C28.5065 43.3205 27.9671 42.7118 27.9396 41.7934C27.4213 42.3548 27.0268 42.9505 27.0794 43.5077C27.2266 45.0664 22.4806 39.5294 22.2841 37.1292C22.2828 37.1298 22.2816 37.1302 22.2802 37.1307C22.2784 37.138 22.2755 37.1445 22.2738 37.1518Z" fill="#5DA2D1" />
    <path d="M19.8792 38.2926C19.8068 38.3392 19.7355 38.3876 19.6645 38.4365C19.7218 38.4171 19.7699 38.4003 19.8219 38.3825C19.8409 38.3523 19.8596 38.3219 19.8792 38.2926Z" fill="#5DA2D1" />
    <path d="M31.0991 44.5902C31.2072 45.1829 31.4752 46.8466 31.8046 48.974C33.3506 45.7855 35.5336 42.2292 36.4664 40.8548C37.6499 39.1106 37.7797 38.1119 37.758 37.5854C37.0973 40.1594 32.9039 44.9742 33.0424 43.5077C33.0899 43.0038 32.7718 42.4686 32.3273 41.9558C32.2455 42.7872 31.7401 43.3851 31.2844 44.4061C31.2498 44.4835 31.178 44.5436 31.0991 44.5902Z" fill="#5DA2D1" />
    <path d="M27.7733 35.0753C28.2033 35.2442 28.6511 35.3661 29.1074 35.4385C29.6631 35.5266 30.2376 35.5439 30.7971 35.4872C31.2475 35.4416 31.693 35.3507 32.1241 35.2121C32.5985 35.0596 33.0535 34.8507 33.4833 34.599C33.9873 34.3039 34.4564 33.9517 34.8948 33.5664C35.0355 33.4428 35.1729 33.3158 35.3077 33.1858C35.3083 33.1852 35.3089 33.1845 35.3096 33.1839C37.1947 31.3638 37.1785 26.7647 37.6335 27.0898C38.6736 27.7886 39.3398 25.7084 39.4699 24.4732C39.5777 23.4496 39.2081 22.9279 38.7827 23.0716C38.6934 23.5147 38.0078 23.3387 37.7367 23.7823C37.4628 24.2304 37.5802 22.2003 37.189 21.6258C36.7978 21.0512 36.5846 20.0407 35.763 19.8875C34.9415 19.7342 28.9345 20.4001 25.2879 18.4604C24.0202 17.7862 23.8097 20.1319 23.1055 21.1662C22.4013 22.2003 22.9099 24.1155 22.4795 23.7325C22.3212 23.5915 22.1615 23.4986 22.0154 23.4237C21.9953 23.4163 21.9736 23.4051 21.9507 23.3914C21.7366 23.2855 21.5598 23.209 21.4731 23.0648C21.0584 22.9498 20.7052 23.4698 20.8108 24.4733C20.9408 25.7084 21.6071 27.7886 22.6472 27.0898C23.1022 26.7648 23.086 31.3638 24.9711 33.1839C24.9767 33.1894 24.983 33.1942 24.9886 33.1996C25.4268 33.6212 25.8951 34.0134 26.4013 34.351C26.8324 34.6385 27.2908 34.8858 27.7733 35.0753Z" fill="#906A5D" />
    <path d="M21.9507 23.3914C21.9723 23.402 21.9931 23.4123 22.0154 23.4237C22.1615 23.4986 22.3212 23.5915 22.4796 23.7325C22.9099 24.1155 22.4013 22.2003 23.1055 21.1662C23.8097 20.1319 24.0202 17.7861 25.2879 18.4604C28.9345 20.4001 34.9415 19.7342 35.763 19.8874C36.5846 20.0407 36.7978 21.0512 37.189 21.6257C37.5802 22.2003 37.4629 24.2304 37.7367 23.7823C38.0078 23.3387 38.6934 23.5146 38.7827 23.0716C38.7835 23.0673 38.7863 23.0649 38.787 23.0605C38.8652 22.6008 40.7881 18.2551 38.167 14.0416C35.5459 9.82823 30.5063 9.45705 27.6234 10.1321C23.904 11.003 23.4967 12.701 23.3011 12.8925C23.1055 13.084 22.3086 13.3103 21.7218 14.1531C19.8831 17.1791 21.3802 22.8981 21.4631 23.0514C21.4658 23.0562 21.4702 23.0598 21.4731 23.0647C21.5598 23.2089 21.7366 23.2854 21.9507 23.3914Z" fill="#373737" />
    <path d="M31.0585 44.6174C30.9652 44.6635 30.855 44.6713 30.7486 44.6782L30.2505 44.7101V44.7246L30.1378 44.7174L30.025 44.7246V44.7101L29.5269 44.6782C29.4205 44.6713 29.3104 44.6635 29.217 44.6174C29.2022 44.61 29.1904 44.5985 29.1762 44.5901C29.0663 45.1924 28.7911 46.9021 28.4541 49.0807C29.3356 50.8293 30.0082 52.4585 30.1377 53.5416C30.27 52.4352 30.9376 50.7623 31.8046 48.9741C31.4753 46.8466 31.2072 45.183 31.0991 44.5902C31.085 44.5986 31.0731 44.6101 31.0585 44.6174Z" fill="#0D63B0" />
    <path d="M28.9911 44.4061C29.0257 44.4835 29.0974 44.5435 29.1762 44.5901C29.1904 44.5984 29.2022 44.61 29.217 44.6174C29.3104 44.6635 29.4205 44.6712 29.527 44.6782L30.025 44.7101V44.7246L30.1378 44.7174L30.2505 44.7246V44.7101L30.7486 44.6782C30.855 44.6712 30.9652 44.6635 31.0585 44.6174C31.0731 44.6101 31.085 44.5986 31.0991 44.5902C31.178 44.5436 31.2498 44.4835 31.2844 44.4061C31.7401 43.3851 32.2455 42.7872 32.3274 41.9558C31.4847 40.9835 30.1894 40.0926 30.0609 39.6494C29.9396 40.0679 28.7784 40.8851 27.9396 41.7934C27.9671 42.7118 28.5065 43.3205 28.9911 44.4061Z" fill="#0F66BF" />
    <path d="M23.6517 35.2556C23.414 35.57 22.9823 36.0311 22.7178 36.2861C22.5769 36.4562 22.3789 36.7475 22.2834 37.1205C22.2836 37.1234 22.2839 37.1263 22.2841 37.1292C22.4805 39.5294 27.2266 45.0664 27.0794 43.5077C27.0268 42.9505 27.4213 42.3548 27.9396 41.7934C28.7784 40.8851 29.9396 40.0679 30.0609 39.6494C30.1894 40.0926 31.4847 40.9835 32.3274 41.9558C32.7718 42.4686 33.09 43.0038 33.0424 43.5077C32.9039 44.9742 37.0973 40.1595 37.7581 37.5854C37.7491 37.3652 37.714 37.2257 37.7177 37.1518C37.7313 36.8753 37.6788 36.6692 37.6046 36.5086C37.4779 36.3342 37.3067 36.1912 37.1757 36.0492C37.1604 36.0325 37.1475 36.0192 37.1332 36.0039C37.0616 35.9313 36.989 35.8565 36.9111 35.7715C36.7931 35.6482 36.6796 35.5216 36.4726 35.2506C36.4639 35.2391 36.4546 35.2222 36.4442 35.2134C36.4455 35.2123 36.447 35.2119 36.4483 35.211C36.2902 35.0019 36.1299 34.7748 35.9707 34.5055C35.9041 34.3927 35.8154 34.3797 35.6839 34.4534C35.1387 34.7592 33.837 36.6027 30.114 39.4535C30.0866 39.4745 30.0712 39.4995 30.0609 39.5266C30.0506 39.4995 30.0351 39.4745 30.0077 39.4535C26.5646 36.8169 25.1924 35.0417 24.5741 34.5474C24.3627 34.3785 24.2384 34.3576 24.151 34.5055C24.0063 34.7505 23.8606 34.9599 23.7162 35.1546C23.7176 35.1552 23.7194 35.1549 23.7207 35.1557C23.7172 35.1625 23.6548 35.2485 23.6517 35.2556Z" fill="#B7DFF7" />
    <path d="M23.8535 57.8906L23.8358 57.7293C23.4978 54.6871 23.3126 52.9703 23.2846 52.6262L23.1988 52.6332C23.0773 52.643 22.9723 52.5541 22.9592 52.433C22.7485 50.4656 21.7609 47.4553 19.2469 47.6598C16.783 47.8603 16.8193 51.901 16.8682 52.9216C16.8742 53.0485 16.7784 53.1557 16.6518 53.166L16.556 53.1737L16.556 53.1738C16.576 53.4187 16.6299 54.3673 16.7165 55.995C18.9563 57.1704 21.3665 58.0624 23.9016 58.6266C23.9006 58.3628 23.8776 58.1071 23.8535 57.8906Z" fill="#F4F4F4" />
    <path d="M16.2772 53.1953C16.1471 53.2026 16.0352 53.1049 16.0284 52.974C15.9986 52.4005 15.977 51.0744 16.2978 49.7967C16.8016 47.7902 17.852 47.0876 18.7705 46.8839C18.7677 46.8658 18.759 46.8501 18.7586 46.8312C18.7157 44.8924 18.854 43.275 19.1047 41.9199C18.424 41.8014 17.9853 41.6637 18.185 41.5149C18.7989 41.058 18.8461 40.1051 19.7144 38.551C19.7476 38.4917 19.7863 38.439 19.822 38.3825C19.77 38.4003 19.7219 38.4171 19.6646 38.4365C17.8907 39.036 13.6269 40.3559 12.36 41.1885C12.3579 41.1899 12.3616 41.2044 12.3648 41.2181C12.6217 41.0828 12.8303 41.0333 12.9166 41.1588C14.0563 42.6044 14.4478 45.9681 14.8423 49.5644C14.9638 50.6721 15.0817 53.0008 15.1367 55.11C15.5599 55.3668 15.9911 55.6117 16.428 55.8473C16.3466 54.3203 16.2959 53.4314 16.2768 53.1964C16.2768 53.1964 16.2772 53.1958 16.2772 53.1953Z" fill="#F4F4F4" />
    <path d="M22.9727 42.3274C22.9727 42.3274 21.3198 42.2185 19.9465 42.0439C19.7912 42.877 19.6797 43.8097 19.628 44.852L22.9727 42.3274Z" fill="#F4F4F4" />
    <path d="M28.2027 53.5279C27.5447 52.7915 26.7583 51.7159 25.96 51.134C23.5586 49.3839 20.0883 45.4832 19.6238 44.9567C19.5971 45.5436 19.5844 46.1556 19.5989 46.8126C19.5989 46.8126 19.5984 46.8146 19.5984 46.8156C22.1213 46.89 23.5095 49.5549 23.797 52.3569C23.8097 52.4808 23.7159 52.5912 23.5916 52.6013L23.564 52.6035C23.5916 52.945 23.7767 54.6591 24.1141 57.6983L24.133 57.8669C24.1587 58.0986 24.1864 58.3883 24.1844 58.6919C25.2471 58.9173 26.3305 59.0859 27.4324 59.1923H29.0132H30.2235C30.2543 57.7303 30.2824 56.5873 30.3068 55.8455C29.5957 55.2203 28.9547 54.3696 28.2027 53.5279Z" fill="#F4F4F4" />
    <path d="M12.9165 41.1588C12.8303 41.0332 12.6217 41.0828 12.3648 41.2181C11.7118 41.5623 10.737 42.48 10.5951 42.6204C9.38088 43.8192 8.69195 45.7565 7.85519 48.8487C9.91765 51.3132 12.376 53.4349 15.1367 55.11C15.0817 53.0008 14.9638 50.6721 14.8423 49.5644C14.4478 45.9681 14.0563 42.6044 12.9165 41.1588Z" fill="#E2E2E2" />
    <path d="M47.6871 41.1588C47.776 41.0295 47.9944 41.0853 48.262 41.2303C48.2694 41.2049 48.272 41.1904 48.2691 41.1885C46.8309 40.2432 41.5259 38.6688 40.392 38.2348C40.3768 38.2289 40.3625 38.2263 40.3474 38.221C40.7589 38.9729 41.0411 39.795 41.2243 40.65C41.3869 41.0311 41.5458 41.3208 41.8065 41.5149C41.9475 41.6198 41.7691 41.7192 41.4141 41.8105C41.6937 44.1722 41.3821 46.6307 41.1574 48.3928C41.0644 49.1216 40.9842 49.7508 40.9842 50.1264C40.9842 50.1662 40.9719 50.202 40.9616 50.2385C41.4249 50.4735 41.7455 50.9492 41.7455 51.5041C41.7455 52.2909 41.1078 52.9286 40.3211 52.9286C39.5344 52.9286 38.8967 52.2909 38.8967 51.5041C38.8967 50.7779 39.4422 50.1854 40.1447 50.0976C40.1478 49.6695 40.2249 49.0587 40.3233 48.2865C40.5387 46.5974 40.8249 44.226 40.5487 41.9747C39.1163 42.1893 37.0188 42.3274 37.0188 42.3274L40.4214 44.8957C40.4214 44.8957 36.6096 49.2551 34.0316 51.134C33.2332 51.7159 32.4468 52.7915 31.7888 53.5279C31.0307 54.3765 30.9374 54.8547 30.3239 55.8619C30.3181 55.8568 30.3126 55.8506 30.3068 55.8455C30.2824 56.5873 30.2543 57.7303 30.2234 59.1923H30.389H31.277H33.1203C37.6108 58.7585 41.8045 57.3111 45.4679 55.0778C45.5233 52.9772 45.6405 50.6665 45.7614 49.5644C46.1559 45.9681 46.5473 42.6044 47.6871 41.1588Z" fill="#EDEDED" />
    <path d="M19.7144 38.551C18.846 40.1051 18.7988 41.058 18.185 41.5149C17.9853 41.6637 18.424 41.8014 19.1046 41.9199C19.5268 39.6369 20.2706 38.1077 21.0269 37.0933C20.6536 37.3883 20.2223 37.7815 19.8792 38.2926C19.8596 38.3219 19.8409 38.3523 19.822 38.3825C19.7863 38.439 19.7476 38.4917 19.7144 38.551Z" fill="#E0E0E0" />
    <path d="M41.8065 41.5149C41.5458 41.3208 41.3868 41.0311 41.2242 40.65C41.306 41.0317 41.3678 41.4198 41.4141 41.8105C41.7691 41.7192 41.9474 41.6198 41.8065 41.5149Z" fill="#E0E0E0" />
    <path d="M37.6158 36.5213C37.6125 36.5166 37.608 36.5132 37.6046 36.5086C37.6788 36.6692 37.7313 36.8753 37.7177 37.1518C37.714 37.2257 37.7491 37.3652 37.7581 37.5854C37.7797 38.1119 37.65 39.1106 36.4664 40.8548C35.5336 42.2292 33.3507 45.7855 31.8046 48.974C30.9376 50.7622 30.27 52.4352 30.1377 53.5416C30.0082 52.4585 29.3356 50.8293 28.4541 49.0807C26.8296 45.858 24.4937 42.2284 23.5251 40.8548C21.8064 38.4173 22.2017 37.4563 22.2738 37.1518C22.2755 37.1445 22.2784 37.138 22.2802 37.1307C22.2811 37.1272 22.2824 37.124 22.2834 37.1205C22.3789 36.7475 22.5769 36.4562 22.7178 36.2861L22.7173 36.2868C21.8302 37.0296 20.5571 38.7683 19.9465 42.0439C21.3198 42.2185 22.9727 42.3274 22.9727 42.3274L19.628 44.852C19.6263 44.8864 19.6253 44.9221 19.6238 44.9567C20.0883 45.4832 23.5586 49.3839 25.96 51.134C26.7583 51.7158 27.5447 52.7915 28.2027 53.5279C28.9548 54.3696 29.5957 55.2203 30.3068 55.8454C30.3126 55.8506 30.3181 55.8568 30.3239 55.8619C30.9374 54.8547 31.0306 54.3765 31.7888 53.5279C32.4468 52.7915 33.2332 51.7158 34.0316 51.134C36.6096 49.2551 40.4214 44.8957 40.4214 44.8957L37.0188 42.3274C37.0188 42.3274 39.1163 42.1893 40.5487 41.9747C40.2827 39.8063 39.4953 37.7492 37.6158 36.5213Z" fill="#E0E0E0" />
    <path d="M36.4727 35.2506C36.6796 35.5216 36.7931 35.6482 36.9111 35.7715C36.9773 35.8409 37.0468 35.9117 37.1332 36.0039C37.1475 36.0192 37.1604 36.0325 37.1758 36.0492C37.3068 36.1912 37.478 36.3342 37.6047 36.5086C37.608 36.5132 37.6126 36.5166 37.6158 36.5213C39.4953 37.7492 40.2827 39.8063 40.5487 41.9747C40.8249 44.226 40.5387 46.5974 40.3233 48.2865C40.2249 49.0587 40.1478 49.6695 40.1447 50.0976C40.2031 50.0902 40.2607 50.0797 40.3211 50.0797C40.5527 50.0797 40.7682 50.1403 40.9616 50.2385C40.9719 50.202 40.9842 50.1662 40.9842 50.1264C40.9842 49.7508 41.0644 49.1216 41.1574 48.3928C41.3821 46.6307 41.6937 44.1722 41.4141 41.8105C41.3679 41.4198 41.306 41.0318 41.2243 40.65C41.0411 39.7951 40.7589 38.9729 40.3474 38.221C39.6336 36.9168 38.5274 35.8264 36.8414 35.1641C36.6974 35.1074 36.5612 35.1226 36.4483 35.211C36.447 35.2119 36.4455 35.2123 36.4442 35.2134C36.4546 35.2222 36.464 35.2391 36.4727 35.2506Z" fill="black" />
    <path d="M40.1447 50.0976C39.4422 50.1854 38.8967 50.7779 38.8967 51.5042C38.8967 52.2909 39.5344 52.9286 40.3211 52.9286C41.1078 52.9286 41.7455 52.2909 41.7455 51.5042C41.7455 50.9492 41.4249 50.4735 40.9616 50.2385C40.7682 50.1403 40.5527 50.0797 40.3211 50.0797C40.2607 50.0798 40.2031 50.0902 40.1447 50.0976ZM41.3135 51.5042C41.3135 52.0523 40.8691 52.4966 40.3211 52.4966C39.773 52.4966 39.3286 52.0523 39.3286 51.5042C39.3286 50.9561 39.773 50.5118 40.3211 50.5118C40.8691 50.5118 41.3135 50.9561 41.3135 51.5042Z" fill="#A4A4A4" />
    <path d="M40.3211 50.5118C39.773 50.5118 39.3286 50.9561 39.3286 51.5042C39.3286 52.0523 39.773 52.4966 40.3211 52.4966C40.8691 52.4966 41.3134 52.0523 41.3134 51.5042C41.3134 50.9561 40.8691 50.5118 40.3211 50.5118Z" fill="white" />
    <path d="M19.1047 41.9199C18.8541 43.275 18.7157 44.8924 18.7586 46.8312C18.759 46.85 18.7677 46.8658 18.7705 46.8838C17.852 47.0876 16.8016 47.7901 16.2978 49.7967C15.977 51.0744 15.9986 52.4005 16.0284 52.974C16.0352 53.1049 16.1471 53.2026 16.2772 53.1953C16.2792 53.1951 16.281 53.1961 16.283 53.196L16.556 53.1737L16.6518 53.166C16.7784 53.1557 16.8742 53.0485 16.8682 52.9216C16.8193 51.901 16.783 47.8603 19.2469 47.6598C21.7609 47.4553 22.7485 50.4656 22.9593 52.433C22.9723 52.5541 23.0773 52.6431 23.1988 52.6332L23.2846 52.6262L23.564 52.6035L23.5916 52.6012C23.7159 52.5912 23.8097 52.4808 23.797 52.3568C23.5095 49.5549 22.1212 46.8899 19.5984 46.8155C19.5984 46.8146 19.5989 46.8136 19.5989 46.8136C19.5844 46.1556 19.5971 45.5436 19.6238 44.9567C19.6253 44.9221 19.6263 44.8864 19.628 44.8521C19.6797 43.8097 19.7912 42.877 19.9465 42.0439C20.5571 38.7683 21.8302 37.0296 22.7173 36.2868L22.7178 36.2861C22.9823 36.0311 23.414 35.57 23.6517 35.2556C23.6548 35.2485 23.7172 35.1624 23.7208 35.1557C23.7195 35.1549 23.7176 35.1552 23.7162 35.1546C23.6127 35.1036 23.4344 35.1652 23.319 35.2087C22.9652 35.3418 21.9875 35.8051 21.0269 37.0932C20.2706 38.1077 19.5268 39.6369 19.1047 41.9199Z" fill="black" />
    <path d="M16.556 53.1737L16.283 53.196C16.281 53.1961 16.2792 53.1951 16.2772 53.1953C16.2772 53.1958 16.2768 53.196 16.2768 53.196C16.2959 53.4314 16.3466 54.3203 16.428 55.8473C16.5229 55.8985 16.6209 55.9448 16.7165 55.995C16.6299 54.3674 16.576 53.4187 16.5561 53.1738L16.556 53.1737Z" fill="#E5E5E5" />
    <path d="M24.133 57.8669L24.1141 57.6983C23.7767 54.6591 23.5916 52.9449 23.564 52.6035L23.2846 52.6262C23.3126 52.9703 23.4978 54.6871 23.8358 57.7293L23.8535 57.8906C23.8776 58.1071 23.9006 58.3628 23.9016 58.6266C23.9962 58.6476 24.0895 58.6717 24.1844 58.6919C24.1864 58.3883 24.1587 58.0985 24.133 57.8669Z" fill="#E5E5E5" />
    <path d="M48.262 41.2303C47.9944 41.0853 47.776 41.0295 47.6871 41.1588C46.5473 42.6044 46.1559 45.9681 45.7614 49.5644C45.6405 50.6665 45.5233 52.9772 45.4679 55.0778C48.2243 53.3974 50.679 51.2723 52.7362 48.8041C51.9049 45.7387 51.2167 43.8132 50.0086 42.6205C49.8682 42.4817 48.9147 41.5838 48.262 41.2303Z" fill="#E2E2E2" />
</svg>
    