<svg width="17" height="16" viewBox="0 0 17 16" fill="none" xmlns="http://www.w3.org/2000/svg">
    <path d="M15.6801 2.11774H12.272V1.43341C12.2724 1.34311 12.2549 1.25364 12.2208 1.17014C12.1866 1.08665 12.1363 1.01079 12.0728 0.946938C12.0094 0.883085 11.934 0.832501 11.851 0.798102C11.7681 0.763702 11.6791 0.746167 11.5894 0.746507H4.77331C4.68357 0.746167 4.59465 0.763702 4.51168 0.798102C4.4287 0.832501 4.35332 0.883085 4.28986 0.946938C4.22641 1.01079 4.17614 1.08665 4.14195 1.17014C4.10776 1.25364 4.09034 1.34311 4.09068 1.43341V2.11774H0.682632C0.501586 2.11774 0.327956 2.19011 0.199938 2.31893C0.0719199 2.44775 0 2.62247 0 2.80465C0 2.98683 0.0719199 3.16154 0.199938 3.29036C0.327956 3.41918 0.501586 3.49155 0.682632 3.49155H2.04534V13.7823C2.04534 14.3281 2.26083 14.8516 2.6444 15.2376C3.02798 15.6236 3.54822 15.8404 4.09068 15.8404H12.272C12.8145 15.8404 13.3347 15.6236 13.7183 15.2376C14.1019 14.8516 14.3174 14.3281 14.3174 13.7823V3.49155H15.6801C15.8611 3.49155 16.0347 3.41918 16.1628 3.29036C16.2908 3.16154 16.3627 2.98683 16.3627 2.80465C16.3627 2.62247 16.2908 2.44775 16.1628 2.31893C16.0347 2.19011 15.8611 2.11774 15.6801 2.11774ZM12.9547 13.7823C12.954 13.964 12.8818 14.1381 12.7538 14.2663C12.6259 14.3946 12.4526 14.4666 12.272 14.4666H4.09068C3.91007 14.4666 3.73683 14.3946 3.60889 14.2663C3.48094 14.1381 3.40872 13.964 3.40805 13.7823V3.49155H12.9547V13.7823Z" fill="#0C71C3" />
    <path d="M6.136 12.4085C6.3166 12.4085 6.48985 12.3364 6.61779 12.2082C6.74574 12.0799 6.81796 11.9059 6.81863 11.7241V6.23403C6.81863 6.05185 6.74671 5.87714 6.61869 5.74832C6.49068 5.6195 6.31705 5.54713 6.136 5.54713C5.95496 5.54713 5.78133 5.6195 5.65331 5.74832C5.52529 5.87714 5.45337 6.05185 5.45337 6.23403V11.7241C5.45405 11.9059 5.52626 12.0799 5.65421 12.2082C5.78215 12.3364 5.9554 12.4085 6.136 12.4085Z" fill="#0C71C3" />
    <path d="M10.2266 12.4085C10.4072 12.4085 10.5804 12.3364 10.7084 12.2082C10.8363 12.0799 10.9085 11.9059 10.9092 11.7241V6.23403C10.9092 6.05185 10.8373 5.87714 10.7093 5.74832C10.5813 5.6195 10.4076 5.54713 10.2266 5.54713C10.0455 5.54713 9.8719 5.6195 9.74388 5.74832C9.61587 5.87714 9.54395 6.05185 9.54395 6.23403V11.7241C9.54462 11.9059 9.61684 12.0799 9.74478 12.2082C9.87273 12.3364 10.046 12.4085 10.2266 12.4085Z" fill="#0C71C3" />
</svg>
    