<svg width="16" height="16" viewBox="0 0 16 16" fill="none" xmlns="http://www.w3.org/2000/svg">
    <path d="M3.33332 1.33333H12.6667C12.8435 1.33333 13.013 1.40357 13.1381 1.52859C13.2631 1.65362 13.3333 1.82319 13.3333 2V14C13.3333 14.1768 13.2631 14.3464 13.1381 14.4714C13.013 14.5964 12.8435 14.6667 12.6667 14.6667H3.33332C3.15651 14.6667 2.98694 14.5964 2.86192 14.4714C2.73689 14.3464 2.66666 14.1768 2.66666 14V2C2.66666 1.82319 2.73689 1.65362 2.86192 1.52859C2.98694 1.40357 3.15651 1.33333 3.33332 1.33333ZM7.99999 11.3333C7.82318 11.3333 7.65361 11.4036 7.52859 11.5286C7.40356 11.6536 7.33332 11.8232 7.33332 12C7.33332 12.1768 7.40356 12.3464 7.52859 12.4714C7.65361 12.5964 7.82318 12.6667 7.99999 12.6667C8.1768 12.6667 8.34637 12.5964 8.47139 12.4714C8.59642 12.3464 8.66666 12.1768 8.66666 12C8.66666 11.8232 8.59642 11.6536 8.47139 11.5286C8.34637 11.4036 8.1768 11.3333 7.99999 11.3333Z" fill="white" />
</svg>
    