<svg width="14" height="15" viewBox="0 0 14 15" fill="none" xmlns="http://www.w3.org/2000/svg">
    <path d="M2.74533 9.05987L2.1197 11.989C2.10293 12.067 2.10485 12.1484 2.12529 12.2254C2.14573 12.3023 2.18402 12.3725 2.23654 12.4291C2.28906 12.4857 2.35409 12.527 2.42549 12.549C2.49691 12.5711 2.57234 12.5731 2.6447 12.555L5.36158 11.8805C5.44437 11.8618 5.52037 11.8175 5.58033 11.7532C7.14658 10.0669 11.7753 5.07649 13.2672 3.46569C13.3079 3.42189 13.3402 3.36987 13.3622 3.3126C13.3842 3.25534 13.3955 3.19395 13.3955 3.13197C13.3955 3.06999 13.3842 3.0086 13.3622 2.95134C13.3402 2.89408 13.3079 2.84205 13.2672 2.79826L11.1694 0.545964C11.1288 0.502106 11.0805 0.467317 11.0274 0.44358C10.9743 0.419842 10.9173 0.407623 10.8599 0.407623C10.8024 0.407623 10.7454 0.419842 10.6923 0.44358C10.6392 0.467317 10.5909 0.502106 10.5503 0.545964L2.86345 8.83346C2.8052 8.89551 2.76427 8.97397 2.74533 9.05987ZM10.861 1.54593L12.331 3.13315L10.6969 4.89253L9.22689 3.30768L10.861 1.54593Z" fill="#0C71C3" />
    <path d="M13.125 6.82178C13.009 6.82178 12.8977 6.87147 12.8156 6.95994C12.7336 7.0484 12.6875 7.16838 12.6875 7.29347V13.4254H1.3125V1.16157H7C7.11602 1.16157 7.2273 1.11187 7.30936 1.02342C7.39141 0.934958 7.4375 0.814983 7.4375 0.689885C7.4375 0.564787 7.39141 0.444812 7.30936 0.356355C7.2273 0.267895 7.11602 0.218201 7 0.218201H0.875C0.758968 0.218201 0.647688 0.267895 0.565642 0.356355C0.483593 0.444812 0.4375 0.564787 0.4375 0.689885V13.897C0.4375 14.0221 0.483593 14.1421 0.565642 14.2306C0.647688 14.319 0.758968 14.3687 0.875 14.3687H13.125C13.241 14.3687 13.3523 14.319 13.4344 14.2306C13.5164 14.1421 13.5625 14.0221 13.5625 13.897V7.29347C13.5625 7.16838 13.5164 7.0484 13.4344 6.95994C13.3523 6.87147 13.241 6.82178 13.125 6.82178Z" fill="#0C71C3" />
</svg>
    