<svg width="14" height="12" viewBox="0 0 14 12" fill="none" xmlns="http://www.w3.org/2000/svg">
    <g clip-path="url(#clip0_7_807)">
        <path fill-rule="evenodd" clip-rule="evenodd" d="M1.47367 4.78949C0.862092 4.78949 0.368408 5.28318 0.368408 5.89475C0.368408 6.50633 0.862092 7.00002 1.47367 7.00002C2.08525 7.00002 2.57893 6.50633 2.57893 5.89475C2.57893 5.28318 2.08525 4.78949 1.47367 4.78949ZM1.47367 0.368439C0.862092 0.368439 0.368408 0.862123 0.368408 1.4737C0.368408 2.08528 0.862092 2.57897 1.47367 2.57897C2.08525 2.57897 2.57893 2.08528 2.57893 1.4737C2.57893 0.862123 2.08525 0.368439 1.47367 0.368439ZM1.47367 9.21054C0.862092 9.21054 0.368408 9.7116 0.368408 10.3158C0.368408 10.92 0.869461 11.4211 1.47367 11.4211C2.07788 11.4211 2.57893 10.92 2.57893 10.3158C2.57893 9.7116 2.08525 9.21054 1.47367 9.21054ZM4.42104 11.0527H13.2631C13.6684 11.0527 14 10.7211 14 10.3158C14 9.91054 13.6684 9.57897 13.2631 9.57897H4.42104C4.01578 9.57897 3.6842 9.91054 3.6842 10.3158C3.6842 10.7211 4.01578 11.0527 4.42104 11.0527ZM4.42104 6.6316H13.2631C13.6684 6.6316 14 6.30002 14 5.89475C14 5.48949 13.6684 5.15791 13.2631 5.15791H4.42104C4.01578 5.15791 3.6842 5.48949 3.6842 5.89475C3.6842 6.30002 4.01578 6.6316 4.42104 6.6316ZM3.6842 1.4737C3.6842 1.87897 4.01578 2.21054 4.42104 2.21054H13.2631C13.6684 2.21054 14 1.87897 14 1.4737C14 1.06844 13.6684 0.73686 13.2631 0.73686H4.42104C4.01578 0.73686 3.6842 1.06844 3.6842 1.4737Z" fill="#0C71C3" />
    </g>
    <defs>
        <clipPath id="clip0_7_807">
            <rect width="14" height="11.7895" fill="white" />
        </clipPath>
    </defs>
</svg>
    