<svg width="20" height="13" viewBox="0 0 20 13" fill="none" xmlns="http://www.w3.org/2000/svg">
    <path fill-rule="evenodd" clip-rule="evenodd" d="M1.05201 1.01914C0.896848 1.16592 0.8 1.37416 0.8 1.60548V11.1945C0.8 11.4263 0.895328 11.6352 1.05049 11.7822L7.24 6.4L1.05201 1.01914ZM18.9495 1.01781C19.1047 1.16477 19.2 1.37369 19.2 1.60548V11.1945C19.2 11.4258 19.1032 11.6341 18.948 11.7809L12.76 6.4L18.9495 1.01781ZM12.1615 6.92047L18 12H2L7.83854 6.92047L10 8.8L12.1615 6.92047ZM1.60288 0C0.717632 0 0 0.715611 0 1.59525V11.2048C0 12.0858 0.711811 12.8 1.60288 12.8H18.3971C19.2824 12.8 20 12.0844 20 11.2048V1.59525C20 0.714217 19.2882 0 18.3971 0H1.60288ZM10 7.76001L18 0.8H2L10 7.76001Z" fill="white" />
</svg>
    