<svg width="20" height="17" viewBox="0 0 20 17" fill="none" xmlns="http://www.w3.org/2000/svg">
<path fill-rule="evenodd" clip-rule="evenodd" d="M10 0L0 6.92593V15.7445C0 16.4379 0.711811 17 1.60288 17H18.3971C19.2824 17 20 16.4368 20 15.7445V6.92593L10 0ZM7.6 12.5926L2 16.3704H18L12.4 12.5926H7.6ZM10 0.818519L18.8 6.92593L11.6 11.963H8.4L1.2 6.92593L10 0.818519ZM18.9481 16.1973L12.8 11.9737L19.2 7.55556V11.6482V15.7408C19.2 15.919 19.1032 16.0819 18.9481 16.1973ZM1.05189 16.1973L7.2 11.9737L0.8 7.55556V11.6482V15.7408C0.8 15.919 0.896804 16.0819 1.05189 16.1973Z" fill="white"/>
</svg>
