<svg width="16" height="16" viewBox="0 0 16 16" fill="none" xmlns="http://www.w3.org/2000/svg">
    <path d="M6.36217 10.82H9.63777C9.70711 10.82 9.77362 10.7924 9.82265 10.7434C9.87168 10.6944 9.89923 10.6278 9.89923 10.5585C9.89923 10.4892 9.87168 10.4227 9.82265 10.3736C9.77362 10.3246 9.70711 10.297 9.63777 10.297H6.36217C6.29282 10.297 6.22632 10.3246 6.17729 10.3736C6.12825 10.4227 6.10071 10.4892 6.10071 10.5585C6.10071 10.6278 6.12825 10.6944 6.17729 10.7434C6.22632 10.7924 6.29282 10.82 6.36217 10.82Z" fill="white" />
    <path d="M6.36221 12.1152H8.03825C8.1075 12.115 8.17385 12.0874 8.22276 12.0384C8.27167 11.9894 8.29914 11.923 8.29914 11.8537C8.29914 11.7845 8.27167 11.718 8.22276 11.669C8.17385 11.62 8.1075 11.5924 8.03825 11.5922H6.36221C6.29296 11.5924 6.22661 11.62 6.1777 11.669C6.12879 11.718 6.10132 11.7845 6.10132 11.8537C6.10132 11.923 6.12879 11.9894 6.1777 12.0384C6.22661 12.0874 6.29296 12.115 6.36221 12.1152Z" fill="white" />
    <path d="M10.3757 8.19979C10.3623 8.12131 10.3305 8.0471 10.2831 7.98318C10.2356 7.91926 10.1737 7.86741 10.1025 7.83184C9.62744 7.59495 8.58494 7.24507 8.58494 7.24507V6.90086L8.61396 6.87896C8.81634 6.72412 8.95168 6.4976 8.99212 6.24601L8.99796 6.20933H9.02624C9.10267 6.20929 9.17735 6.1865 9.24077 6.14385C9.30419 6.10121 9.35347 6.04064 9.38233 5.96987C9.4167 5.90775 9.43472 5.83792 9.4347 5.76692C9.43471 5.71804 9.42542 5.66961 9.40733 5.6242C9.39826 5.57454 9.37066 5.53018 9.33012 5.50009L9.23394 5.44169L9.25785 5.3373C9.4316 4.57988 8.84483 3.89765 8.05693 3.87885C8.03777 3.87849 8.01879 3.87831 7.99999 3.87867C7.98119 3.87831 7.96221 3.87849 7.94304 3.87885C7.15515 3.89765 6.56837 4.57988 6.74213 5.3373L6.76603 5.44169L6.66985 5.50009C6.62931 5.53018 6.60171 5.57454 6.59265 5.6242C6.57456 5.66961 6.56527 5.71804 6.56527 5.76692C6.56525 5.83792 6.58328 5.90775 6.61765 5.96987C6.64651 6.04064 6.69579 6.10121 6.75921 6.14386C6.82263 6.1865 6.89732 6.2093 6.97374 6.20933H7.00203L7.00787 6.24601C7.04831 6.4976 7.18365 6.72412 7.38603 6.87896L7.41505 6.90086V7.24507C7.41505 7.24507 6.37255 7.59495 5.89748 7.83185C5.82624 7.86741 5.76439 7.91926 5.71692 7.98318C5.66945 8.04711 5.63771 8.12131 5.62426 8.19979C5.56766 8.62307 5.53566 9.04928 5.52844 9.47626H10.4716C10.4643 9.04928 10.4323 8.62307 10.3757 8.19979Z" fill="white" />
    <path d="M12.7253 13.305L12.6718 1.84956C12.6714 1.4156 12.4988 0.999526 12.1919 0.692669C11.8851 0.385813 11.469 0.213243 11.0351 0.212837H4.96491C4.53095 0.213242 4.11487 0.385811 3.80802 0.692668C3.50116 0.999525 3.32859 1.4156 3.32818 1.84956L3.27468 13.305C3.27468 13.3098 3.27405 13.3146 3.27405 13.3193V14.074C3.28213 14.522 3.46219 14.9498 3.77695 15.2687C4.0917 15.5876 4.51704 15.7732 4.9649 15.7872H11.0351C11.4829 15.7732 11.9083 15.5876 12.223 15.2687C12.5378 14.9498 12.7178 14.522 12.7259 14.074V13.3193C12.7259 13.3146 12.7253 13.3098 12.7253 13.305ZM7.99998 13.2206H4.13228L4.17685 2.773H11.8231L11.8677 13.2206L7.99998 13.2206Z" fill="white" />
</svg>
    