<svg width="16" height="16" viewBox="0 0 16 16" fill="none" xmlns="http://www.w3.org/2000/svg">
    <path d="M6.40001 12.2664C7.76435 12.2664 9.00466 11.7717 9.97211 10.9345L14.3132 15.3742C14.4124 15.4757 14.5364 15.5264 14.6729 15.5264C14.8093 15.5264 14.9333 15.4757 15.0326 15.3742C15.231 15.1712 15.231 14.8414 15.0326 14.6385L10.6915 10.1987C11.4977 9.2093 11.9938 7.92812 11.9938 6.54545C11.9938 3.38689 9.48838 0.824524 6.40001 0.824524C3.32404 0.824524 0.806213 3.39958 0.806213 6.54545C0.806213 9.70402 3.32404 12.2664 6.40001 12.2664ZM6.40001 1.86469C8.93024 1.86469 10.9768 3.9704 10.9768 6.54545C10.9768 9.13319 8.93024 11.2262 6.40001 11.2262C3.86978 11.2262 1.82327 9.12051 1.82327 6.54545C1.82327 3.9704 3.88218 1.86469 6.40001 1.86469Z" fill="#0C71C3" />
</svg>
    