<svg width="16" height="16" viewBox="0 0 16 16" fill="none" xmlns="http://www.w3.org/2000/svg">
    <path d="M7.99992 8.67878C6.26867 8.67878 4.8602 7.27031 4.8602 5.53906C4.8602 3.80781 6.26867 2.39934 7.99992 2.39934C9.73117 2.39934 11.1396 3.80781 11.1396 5.53906C11.1396 7.27031 9.73117 8.67878 7.99992 8.67878Z" fill="white" />
    <path d="M13.6569 2.34313C12.1456 0.832188 10.1369 0 8 0C5.86313 0 3.85406 0.832188 2.34313 2.34313C0.832188 3.85406 0 5.86313 0 8C0 10.1369 0.832188 12.1459 2.34313 13.6569C3.85406 15.1678 5.86313 16 8 16C10.1369 16 12.1456 15.1678 13.6569 13.6569C15.1678 12.1459 16 10.1369 16 8C16 5.86313 15.1678 3.85406 13.6569 2.34313ZM2.16063 12.4803C1.20563 11.2384 0.636875 9.68438 0.636875 8C0.636875 3.94 3.94 0.636875 8 0.636875C12.06 0.636875 15.3628 3.94 15.3628 8C15.3628 9.685 14.7941 11.2397 13.8381 12.4819C13.6013 11.6894 12.9981 10.9819 12.0824 10.4409C10.9759 9.78716 9.51928 9.42719 7.98116 9.42719C6.44491 9.42719 4.99459 9.78722 3.89741 10.4416C2.99188 10.9816 2.39531 11.6878 2.16063 12.4803Z" fill="white" />
</svg>
    